<?xml version="1.0" standalone="no"?>
<!DOCTYPE svg PUBLIC "-//W3C//DTD SVG 20010904//EN"
 "http://www.w3.org/TR/2001/REC-SVG-20010904/DTD/svg10.dtd">
<svg version="1.0" xmlns="http://www.w3.org/2000/svg"
 width="1000.000000pt" height="1000.000000pt" viewBox="0 0 1000.000000 1000.000000"
 preserveAspectRatio="xMidYMid meet">
<metadata>
Created by potrace 1.14, written by Peter Selinger 2001-2017
</metadata>
<g transform="translate(0.000000,1000.000000) scale(0.100000,-0.100000)"
fill="#000000" stroke="none">
<path d="M4659 9565 c-2 -2 -44 -6 -94 -9 -49 -4 -101 -8 -115 -11 -14 -2 -47
-7 -75 -10 -315 -36 -670 -121 -1007 -241 -53 -19 -114 -42 -135 -51 -21 -9
-42 -18 -48 -19 -35 -7 -387 -179 -516 -251 -78 -44 -259 -159 -347 -220 -80
-55 -294 -217 -328 -248 -7 -5 -38 -32 -70 -60 -313 -268 -603 -598 -841 -958
-356 -537 -610 -1190 -703 -1804 -7 -43 -14 -87 -16 -98 -2 -11 -6 -45 -10
-75 -3 -30 -7 -66 -9 -80 -27 -156 -26 -764 0 -980 76 -611 236 -1142 491
-1629 109 -207 331 -558 421 -666 4 -5 24 -30 43 -55 19 -25 39 -50 45 -56 5
-6 26 -30 45 -54 88 -110 190 -219 345 -370 146 -142 176 -168 340 -300 411
-328 901 -594 1410 -764 137 -46 390 -116 490 -135 28 -6 61 -13 75 -16 27 -6
137 -24 185 -31 134 -20 165 -24 201 -28 237 -28 825 -29 1008 -1 12 2 48 6
81 10 477 52 1045 226 1504 460 157 80 155 80 306 170 397 237 839 610 1115
941 14 16 46 54 71 84 163 196 347 468 489 725 242 438 433 1000 507 1490 4
28 8 52 8 55 1 3 5 37 9 75 5 39 10 78 12 87 1 9 5 59 9 110 3 51 8 109 11
128 6 41 5 445 0 540 -5 73 -14 177 -21 230 -2 19 -7 60 -10 90 -3 30 -17 118
-31 195 -14 77 -27 154 -30 170 -3 17 -19 82 -35 145 -16 63 -32 124 -34 134
-3 11 -25 85 -51 165 -128 406 -325 814 -559 1161 -90 133 -176 252 -195 270
-3 3 -18 23 -35 45 -16 22 -31 42 -34 45 -4 3 -45 51 -93 107 -84 97 -300 319
-383 393 -237 211 -476 389 -725 540 -110 66 -455 245 -527 273 -23 9 -61 25
-85 36 -108 49 -473 174 -576 196 -10 2 -51 13 -92 24 -62 16 -243 53 -375 76
-39 6 -164 23 -240 31 -33 4 -76 8 -95 11 -45 5 -676 13 -681 8z m571 -928
c25 -4 74 -9 110 -12 36 -3 135 -17 220 -31 589 -96 1159 -345 1641 -715 151
-116 203 -162 369 -328 466 -467 789 -1031 955 -1665 21 -77 39 -151 41 -165
2 -14 7 -37 10 -51 3 -14 7 -34 9 -45 19 -107 25 -147 30 -190 4 -27 8 -61 10
-75 26 -154 25 -665 0 -835 -3 -16 -7 -47 -10 -68 -13 -94 -29 -195 -39 -242
-28 -132 -42 -187 -76 -304 -40 -138 -99 -307 -139 -393 -11 -26 -21 -49 -21
-53 0 -13 -143 -292 -196 -382 -59 -101 -221 -345 -252 -379 -9 -10 -30 -37
-46 -59 -17 -22 -32 -42 -36 -45 -3 -3 -30 -34 -60 -70 -56 -68 -268 -283
-355 -360 -74 -67 -231 -191 -308 -244 -38 -25 -83 -57 -100 -69 -36 -25 -34
-23 -172 -106 -348 -206 -763 -363 -1168 -440 -107 -21 -137 -25 -232 -37 -27
-3 -61 -7 -75 -10 -141 -23 -628 -23 -795 1 -16 2 -49 6 -71 9 -47 6 -216 33
-254 41 -14 3 -34 7 -45 9 -16 3 -116 27 -170 40 -331 82 -764 274 -1070 474
-272 178 -595 458 -770 666 -28 32 -55 64 -60 70 -6 6 -42 52 -80 101 -236
302 -416 626 -551 988 -40 107 -108 326 -118 380 -2 12 -11 49 -19 82 -9 33
-18 76 -21 95 -3 19 -8 46 -11 60 -10 48 -20 113 -30 195 -3 28 -8 64 -10 80
-23 179 -23 632 0 776 2 13 6 48 9 77 41 367 174 813 347 1162 87 177 266 477
292 488 4 2 7 8 7 13 0 11 85 123 197 258 81 98 279 302 368 381 31 27 257
209 310 248 89 68 352 225 494 296 167 84 492 215 575 232 10 2 33 8 50 13 52
17 180 50 216 56 19 3 49 10 65 15 17 5 64 14 105 20 41 7 83 14 94 16 10 2
44 6 75 9 31 4 67 8 81 11 14 2 70 7 125 10 55 4 101 7 103 9 5 4 409 -3 452
-8z"/>
<path d="M4667 6941 c-6 -2 -95 -52 -197 -111 -102 -59 -336 -194 -520 -300
-654 -377 -579 -329 -627 -406 -31 -51 -39 -72 -31 -82 8 -9 7 -11 -3 -7 -13
5 -37 -29 -105 -150 -6 -11 -23 -41 -37 -66 -14 -26 -23 -50 -19 -54 4 -5 2
-5 -4 -2 -14 8 -27 -20 -17 -35 3 -7 1 -8 -5 -4 -9 5 -12 -49 -12 -211 -1
-704 -1 -1149 1 -1158 1 -5 0 -14 -1 -20 -7 -32 2 -136 13 -156 32 -59 54 -88
62 -81 5 4 5 1 1 -5 -7 -12 95 -199 128 -235 9 -10 13 -18 10 -18 -3 0 7 -23
23 -51 23 -41 42 -59 108 -98 76 -46 515 -299 805 -466 74 -42 140 -81 145
-85 6 -4 35 -21 65 -37 30 -17 83 -47 117 -67 34 -20 66 -36 72 -36 6 0 11 -4
11 -9 0 -6 52 -11 115 -13 63 -2 115 0 115 4 0 4 7 5 15 2 20 -8 265 -11 265
-3 0 3 11 4 24 2 27 -6 248 116 239 131 -4 5 -1 6 5 2 14 -8 55 18 45 28 -4 4
0 4 9 1 10 -4 25 2 37 14 12 12 21 18 21 15 0 -3 13 3 29 12 17 10 28 20 26
24 -2 3 5 6 15 7 10 1 37 13 59 27 22 14 43 26 47 26 3 0 18 8 32 18 15 11 52
33 82 49 30 17 96 54 145 83 50 29 105 61 123 72 42 24 266 153 356 205 68 40
69 42 151 184 45 79 106 185 135 234 l53 90 1 758 c1 416 -1 757 -4 757 -3 0
-11 12 -18 28 -18 41 -64 116 -76 124 -6 5 -7 8 -1 8 6 0 2 7 -8 14 -10 8 -18
16 -17 18 4 8 -24 58 -32 58 -5 0 -7 4 -4 8 7 12 -29 63 -39 55 -4 -5 -6 -1
-3 7 3 8 -5 31 -16 50 -12 19 -28 48 -36 63 -16 33 -74 71 -92 61 -7 -4 -10
-4 -6 1 7 7 -51 55 -67 55 -3 0 -22 11 -43 23 -20 13 -68 41 -107 62 -38 21
-78 45 -87 53 -10 8 -18 12 -18 8 0 -4 -20 7 -44 24 -25 16 -47 30 -51 30 -3
0 -22 11 -42 25 -20 13 -40 22 -45 19 -4 -3 -8 -1 -8 4 0 5 -21 20 -47 33 -27
13 -49 27 -51 32 -2 4 -7 7 -12 7 -4 0 -50 25 -101 55 -52 31 -100 53 -107 50
-7 -2 -11 -1 -8 4 3 4 -29 27 -72 51 -42 24 -92 54 -111 67 -19 12 -38 20 -43
17 -4 -3 -8 -1 -8 3 0 5 -21 20 -47 33 -27 14 -50 27 -53 30 -3 3 -18 12 -35
22 -25 13 -66 16 -250 18 -121 0 -239 2 -263 3 -23 1 -48 0 -55 -2z m224 -98
c13 -16 12 -17 -3 -4 -10 7 -18 15 -18 17 0 8 8 3 21 -13z m74 8 c3 -5 2 -12
-3 -15 -5 -3 -9 1 -9 9 0 17 3 19 12 6z m119 -89 c3 -5 -1 -9 -9 -9 -8 0 -12
4 -9 9 3 4 7 8 9 8 2 0 6 -4 9 -8z m243 -77 c0 -8 -4 -12 -9 -9 -5 3 -6 10 -3
15 9 13 12 11 12 -6z m320 -160 c0 -8 -4 -12 -9 -9 -5 3 -6 10 -3 15 9 13 12
11 12 -6z m-157 -45 c0 -5 -4 -10 -10 -10 -5 0 -10 5 -10 10 0 6 5 10 10 10 6
0 10 -4 10 -10z m157 -45 c0 -8 -4 -12 -9 -9 -5 3 -6 10 -3 15 9 13 12 11 12
-6z m240 -70 c0 -8 -4 -12 -9 -9 -5 3 -6 10 -3 15 9 13 12 11 12 -6z m78 -5
c3 -5 1 -10 -4 -10 -6 0 -11 5 -11 10 0 6 2 10 4 10 3 0 8 -4 11 -10z m-111
-38 c3 -5 -1 -9 -9 -9 -8 0 -15 4 -15 9 0 4 4 8 9 8 6 0 12 -4 15 -8z m-49
-41 c3 -5 2 -12 -3 -15 -5 -3 -9 1 -9 9 0 17 3 19 12 6z m202 -76 c0 -8 -4
-12 -9 -9 -5 3 -6 10 -3 15 9 13 12 11 12 -6z m277 -3 c3 -5 -1 -9 -9 -9 -8 0
-12 4 -9 9 3 4 7 8 9 8 2 0 6 -4 9 -8z m-310 -40 c3 -5 -1 -9 -9 -9 -8 0 -12
4 -9 9 3 4 7 8 9 8 2 0 6 -4 9 -8z m550 -8 c3 -8 2 -12 -4 -9 -6 3 -10 10 -10
16 0 14 7 11 14 -7z m-317 -29 c0 -8 -4 -12 -9 -9 -5 3 -6 10 -3 15 9 13 12
11 12 -6z m-282 -4 c3 -5 2 -12 -3 -15 -5 -3 -9 1 -9 9 0 17 3 19 12 6z m439
-39 c3 -5 -1 -9 -9 -9 -8 0 -12 4 -9 9 3 4 7 8 9 8 2 0 6 -4 9 -8z m-2999 -42
c3 -5 1 -10 -4 -10 -6 0 -11 5 -11 10 0 6 2 10 4 10 3 0 8 -4 11 -10z m3159
-78 c3 -5 -1 -9 -9 -9 -8 0 -12 4 -9 9 3 4 7 8 9 8 2 0 6 -4 9 -8z m6 -76 c0
-3 -4 -8 -10 -11 -5 -3 -10 -1 -10 4 0 6 5 11 10 11 6 0 10 -2 10 -4z m-3276
-124 c3 -5 -1 -9 -9 -9 -8 0 -12 4 -9 9 3 4 7 8 9 8 2 0 6 -4 9 -8z m71 -121
c3 -5 2 -12 -3 -15 -5 -3 -9 1 -9 9 0 17 3 19 12 6z m80 -161 c3 -5 1 -10 -4
-10 -6 0 -11 5 -11 10 0 6 2 10 4 10 3 0 8 -4 11 -10z m-235 -76 c0 -8 -19
-13 -24 -6 -3 5 1 9 9 9 8 0 15 -2 15 -3z m80 -164 c0 -5 -2 -10 -4 -10 -3 0
-8 5 -11 10 -3 6 -1 10 4 10 6 0 11 -4 11 -10z m75 -69 c3 -5 2 -12 -3 -15 -5
-3 -9 1 -9 9 0 17 3 19 12 6z m-155 -87 c0 -8 -19 -13 -24 -6 -3 5 1 9 9 9 8
0 15 -2 15 -3z m315 -52 c-3 -3 -11 0 -18 7 -9 10 -8 11 6 5 10 -3 15 -9 12
-12z m-225 -108 c0 -8 -19 -13 -24 -6 -3 5 1 9 9 9 8 0 15 -2 15 -3z m67 -9
c0 -8 -4 -12 -9 -9 -5 3 -6 10 -3 15 9 13 12 11 12 -6z m-122 -24 c3 -5 2 -12
-3 -15 -5 -3 -9 1 -9 9 0 17 3 19 12 6z m45 -45 c0 -3 -4 -8 -10 -11 -5 -3
-10 -1 -10 4 0 6 5 11 10 11 6 0 10 -2 10 -4z m-76 -164 c3 -5 -1 -9 -9 -9 -8
0 -12 4 -9 9 3 4 7 8 9 8 2 0 6 -4 9 -8z m156 -38 c0 -8 -19 -13 -24 -6 -3 5
1 9 9 9 8 0 15 -2 15 -3z m-85 -113 c3 -5 2 -12 -3 -15 -5 -3 -9 1 -9 9 0 17
3 19 12 6z m-75 -91 c0 -5 -5 -10 -11 -10 -5 0 -7 5 -4 10 3 6 8 10 11 10 2 0
4 -4 4 -10z m164 -78 c3 -5 -1 -9 -9 -9 -8 0 -12 4 -9 9 3 4 7 8 9 8 2 0 6 -4
9 -8z m76 -236 c0 -2 -7 -7 -16 -10 -8 -3 -12 -2 -9 4 6 10 25 14 25 6z m2884
-244 c3 -5 -1 -9 -9 -9 -8 0 -12 4 -9 9 3 4 7 8 9 8 2 0 6 -4 9 -8z m156 2 c0
-8 -19 -13 -24 -6 -3 5 1 9 9 9 8 0 15 -2 15 -3z m-323 -89 c0 -8 -4 -12 -9
-9 -5 3 -6 10 -3 15 9 13 12 11 12 -6z m-82 -144 c3 -5 2 -12 -3 -15 -5 -3 -9
1 -9 9 0 17 3 19 12 6z m-155 -91 c0 -5 -5 -10 -11 -10 -5 0 -7 5 -4 10 3 6 8
10 11 10 2 0 4 -4 4 -10z m-245 -80 c3 -5 1 -10 -4 -10 -6 0 -11 5 -11 10 0 6
2 10 4 10 3 0 8 -4 11 -10z m-238 -75 c0 -8 -4 -12 -9 -9 -5 3 -6 10 -3 15 9
13 12 11 12 -6z m80 0 c0 -8 -4 -12 -9 -9 -5 3 -6 10 -3 15 9 13 12 11 12 -6z
m238 -85 c3 -5 1 -10 -4 -10 -6 0 -11 5 -11 10 0 6 2 10 4 10 3 0 8 -4 11 -10z
m-555 -76 c0 -8 -19 -13 -24 -6 -3 5 1 9 9 9 8 0 15 -2 15 -3z m320 -4 c0 -5
-5 -10 -11 -10 -5 0 -7 5 -4 10 3 6 8 10 11 10 2 0 4 -4 4 -10z m-480 -80 c0
-5 -2 -10 -4 -10 -3 0 -8 5 -11 10 -3 6 -1 10 4 10 6 0 11 -4 11 -10z m317 -5
c0 -8 -4 -12 -9 -9 -5 3 -6 10 -3 15 9 13 12 11 12 -6z m-162 -74 c3 -5 2 -12
-3 -15 -5 -3 -9 1 -9 9 0 17 3 19 12 6z"/>
</g>
</svg>
